<svg xmlns="http://www.w3.org/2000/svg" width="300" height="300" viewBox="0 0 300 300"><path fill="#d5d5d5" d="M0 0h300v300H0z"/><path d="M235.2 260.8l-169.2 1c-15 0-26.7-12-26.8-26.6l-1-169c0-14.8 12-26.7 26.6-26.7l169.2-1c15 0 26.7 12 26.8 26.5l1 169.3c-.2 14.3-12 26.4-26.6 26.5z" fill="none" stroke-width="13.4" stroke="#4d4d4d" stroke-linecap="square"/><path d="M150.4 120.2c-14.4 0-26-11.7-26-26 0-14.6 11.6-26.3 26-26.3 14.5 0 26.2 11.6 26.2 26 0 14.5-11.7 26.2-26.2 26.2zM176.6 236.2h-52.3l5.2-103.6h41.8z" fill="#4d4d4d"/></svg>