<svg xmlns="http://www.w3.org/2000/svg" viewBox="793.4 604.5 300 300"><path d="M1093.4 698.4v-19.7c-.3-6.7-.7-13.3-1.8-19.8-1.2-6.8-3-13-6.2-19-3-6-7-11.2-11.6-16-4.7-4.6-10-8.5-16-11.5s-12-5-18.7-6.2c-6.3-1.2-13-1.6-19.5-1.7h-152c-6.6.2-13.2.6-19.7 1.7-6.6 1.2-12.7 3-18.7 6.2-5.7 3-11 7-16 11.6-4.5 4.8-8.4 10-11.4 16s-5 12-6.2 18.8c-1.2 6.4-1.6 13-1.7 19.6v152c.2 6.7.6 13.3 1.7 19.8 1.2 6.6 3 12.7 6.2 18.7 3 5.7 7 11 11.6 16 4.8 4.5 10.2 8.4 16 11.4 6 3 12.2 5 18.8 6.2 6.5 1.2 13 1.6 19.7 1.7h151.6c6.7-.2 13.3-.6 19.8-1.7 6.8-1.2 13-3 19-6.2 6-3 11.2-7 16-11.6s8.5-10.2 11.5-16c3-6 5-12.2 6.2-18.8 1.2-6.5 1.6-13 1.7-19.7v-132z"/></svg>