<svg xmlns="http://www.w3.org/2000/svg" viewBox="793.4 604.5 300 300"><path d="M1093.4 698.4v-10.7-9c-.3-6.7-.7-13.3-1.8-19.8-1.2-6.7-3-12.8-6.2-18.8-3-6-7-11.3-11.6-16-4.7-4.7-10-8.6-16-11.6s-12-5-18.7-6.2c-6.4-1.2-13-1.6-19.6-1.7H867.6c-6.7.2-13.3.6-19.8 1.7-6.6 1.2-12.7 3-18.7 6.2-5.8 3-11.2 7-16 11.6-4.6 4.7-8.5 10-11.5 16s-5 12-6.2 18.7c-1.2 6.4-1.6 13-1.7 19.6V830.4c.2 6.7.6 13.3 1.7 19.8 1.2 6.6 3 12.7 6.2 18.7 3 5.8 7 11.2 11.6 16 4.8 4.6 10.2 8.5 16 11.5 6 3 12.2 5 18.8 6.2 6.5 1.2 13 1.6 19.7 1.7H1019.3c6.7-.2 13.3-.6 19.8-1.7 6.7-1.2 12.8-3 18.8-6.2 6-3 11.3-7 16-11.6s8.6-10.2 11.6-16c3-6 5-12.2 6.2-18.8 1.2-6.5 1.6-13 1.7-19.7v-9-123.1z"/></svg>